<?xml version="1.0" encoding="us-ascii" standalone="no"?><svg xmlns="http://www.w3.org/2000/svg" xmlns:xlink="http://www.w3.org/1999/xlink" contentStyleType="text/css" height="94px" preserveAspectRatio="none" style="width:274px;height:94px;background:#FFFFFF;" version="1.1" viewBox="0 0 274 94" width="274px" zoomAndPan="magnify"><defs/><g><!--class Course--><g id="elem_Course"><rect codeLine="9" fill="#F1F1F1" height="64.4883" id="Course" rx="2.5" ry="2.5" style="stroke:#181818;stroke-width:0.5;" width="102" x="165.5" y="15.25"/><ellipse cx="189.95" cy="31.25" fill="#ADD1B2" rx="11" ry="11" style="stroke:#181818;stroke-width:1.0;"/><path d="M192.4231,37.3931 Q191.8421,37.6919 191.2029,37.8413 Q190.5638,37.9907 189.8582,37.9907 Q187.3514,37.9907 186.0315,36.3389 Q184.7117,34.687 184.7117,31.5659 Q184.7117,28.4365 186.0315,26.7847 Q187.3514,25.1328 189.8582,25.1328 Q190.5638,25.1328 191.2112,25.2822 Q191.8587,25.4316 192.4231,25.7305 L192.4231,28.4531 Q191.7923,27.8721 191.1988,27.6023 Q190.6053,27.3325 189.9744,27.3325 Q188.6297,27.3325 187.9449,28.3992 Q187.2601,29.4658 187.2601,31.5659 Q187.2601,33.6577 187.9449,34.7244 Q188.6297,35.791 189.9744,35.791 Q190.6053,35.791 191.1988,35.5212 Q191.7923,35.2515 192.4231,34.6704 Z " fill="#000000"/><a href="https://github.com/johnlayton/nokescourt/blob/main/src/main/java/org/nokescourt/model/Course" target="_top" title="https://github.com/johnlayton/nokescourt/blob/main/src/main/java/org/nokescourt/model/Course" xlink:actuate="onRequest" xlink:href="https://github.com/johnlayton/nokescourt/blob/main/src/main/java/org/nokescourt/model/Course" xlink:show="new" xlink:title="https://github.com/johnlayton/nokescourt/blob/main/src/main/java/org/nokescourt/model/Course" xlink:type="simple"><text fill="#0000FF" font-family="sans-serif" font-size="14" lengthAdjust="spacing" text-decoration="underline" textLength="49" x="206.05" y="36.541">Course</text></a><line style="stroke:#181818;stroke-width:0.5;" x1="166.5" x2="266.5" y1="47.25" y2="47.25"/><text fill="#000000" font-family="sans-serif" font-size="14" lengthAdjust="spacing" textLength="90" x="171.5" y="64.7852">code :: String</text><line style="stroke:#181818;stroke-width:0.5;" x1="166.5" x2="266.5" y1="71.7383" y2="71.7383"/></g><!--class Exam--><g id="elem_Exam"><rect codeLine="13" fill="#F1F1F1" height="80.9766" id="Exam" rx="2.5" ry="2.5" style="stroke:#181818;stroke-width:0.5;" width="123" x="7" y="7"/><ellipse cx="45.85" cy="23" fill="#ADD1B2" rx="11" ry="11" style="stroke:#181818;stroke-width:1.0;"/><path d="M48.3231,29.1431 Q47.7421,29.4419 47.1029,29.5913 Q46.4638,29.7407 45.7582,29.7407 Q43.2514,29.7407 41.9315,28.0889 Q40.6117,26.437 40.6117,23.3159 Q40.6117,20.1865 41.9315,18.5347 Q43.2514,16.8828 45.7582,16.8828 Q46.4638,16.8828 47.1112,17.0322 Q47.7587,17.1816 48.3231,17.4805 L48.3231,20.2031 Q47.6923,19.6221 47.0988,19.3523 Q46.5053,19.0825 45.8744,19.0825 Q44.5297,19.0825 43.8449,20.1492 Q43.1601,21.2158 43.1601,23.3159 Q43.1601,25.4077 43.8449,26.4744 Q44.5297,27.541 45.8744,27.541 Q46.5053,27.541 47.0988,27.2712 Q47.6923,27.0015 48.3231,26.4204 Z " fill="#000000"/><a href="https://github.com/johnlayton/nokescourt/blob/main/src/main/java/org/nokescourt/model/Exam" target="_top" title="https://github.com/johnlayton/nokescourt/blob/main/src/main/java/org/nokescourt/model/Exam" xlink:actuate="onRequest" xlink:href="https://github.com/johnlayton/nokescourt/blob/main/src/main/java/org/nokescourt/model/Exam" xlink:show="new" xlink:title="https://github.com/johnlayton/nokescourt/blob/main/src/main/java/org/nokescourt/model/Exam" xlink:type="simple"><text fill="#0000FF" font-family="sans-serif" font-size="14" lengthAdjust="spacing" text-decoration="underline" textLength="38" x="65.15" y="28.291">Exam</text></a><line style="stroke:#181818;stroke-width:0.5;" x1="8" x2="129" y1="39" y2="39"/><text fill="#000000" font-family="sans-serif" font-size="14" lengthAdjust="spacing" textLength="111" x="13" y="56.5352">course :: Course</text><text fill="#000000" font-family="sans-serif" font-size="14" lengthAdjust="spacing" textLength="90" x="13" y="73.0234">code :: String</text><line style="stroke:#181818;stroke-width:0.5;" x1="8" x2="129" y1="79.9766" y2="79.9766"/></g><!--link Exam to Course--><g id="link_Exam_Course"><path codeLine="18" d="M130.36,47.49 C139.93,47.49 149.49,47.49 159.06,47.49 " fill="none" id="Exam-to-Course" style="stroke:#181818;stroke-width:1.0;"/><polygon fill="#181818" points="164.02,47.49,155.02,43.49,159.02,47.49,155.02,51.49,164.02,47.49" style="stroke:#181818;stroke-width:1.0;"/></g><!--SRC=[jSun3i8m30NGFQUmkeFt3Yo84p1M7TnG9Ib9ZEAq0Y7kJjiK2OcPnVvV-iFJdaIWQXgRyqrgHEEo7Rkzve03s-ZfaJbYv6ilciUKiVFSOI0NKP8kOQ29a9FvdWM-z1wFSvOUoclR2aYs0ay5eESHr3MSStBHW7effVyBEjqfm78spDeBPLNDcEBxqIsuTRqxV2Pl]--></g></svg>