<?xml version="1.0" encoding="us-ascii" standalone="no"?><svg xmlns="http://www.w3.org/2000/svg" xmlns:xlink="http://www.w3.org/1999/xlink" contentStyleType="text/css" height="687px" preserveAspectRatio="none" style="width:1157px;height:687px;background:#FFFFFF;" version="1.1" viewBox="0 0 1157 687" width="1157px" zoomAndPan="magnify"><defs/><g><rect fill="#FFFFFF" height="244.8633" style="stroke:#181818;stroke-width:1.0;" width="10" x="241" y="112.7988"/><rect fill="#FFFFFF" height="201.5527" style="stroke:#181818;stroke-width:1.0;" width="10" x="241" y="386.9727"/><rect fill="#FFFFFF" height="72.6211" style="stroke:#181818;stroke-width:1.0;" width="10" x="955.5" y="142.1094"/><rect fill="#FFFFFF" height="29.3105" style="stroke:#181818;stroke-width:1.0;" width="10" x="955.5" y="416.2832"/><rect fill="#FFFFFF" height="14" style="stroke:#181818;stroke-width:1.0;" width="10" x="1096" y="171.4199"/><line style="stroke:#181818;stroke-width:0.5;stroke-dasharray:5.0,5.0;" x1="28" x2="28" y1="81.4883" y2="606.5254"/><line style="stroke:#181818;stroke-width:0.5;stroke-dasharray:5.0,5.0;" x1="246" x2="246" y1="81.4883" y2="606.5254"/><line style="stroke:#181818;stroke-width:0.5;stroke-dasharray:5.0,5.0;" x1="416" x2="416" y1="81.4883" y2="606.5254"/><line style="stroke:#181818;stroke-width:0.5;stroke-dasharray:5.0,5.0;" x1="630" x2="630" y1="81.4883" y2="606.5254"/><line style="stroke:#181818;stroke-width:0.5;stroke-dasharray:5.0,5.0;" x1="797" x2="797" y1="81.4883" y2="606.5254"/><line style="stroke:#181818;stroke-width:0.5;stroke-dasharray:5.0,5.0;" x1="960" x2="960" y1="81.4883" y2="606.5254"/><line style="stroke:#181818;stroke-width:0.5;stroke-dasharray:5.0,5.0;" x1="1101" x2="1101" y1="81.4883" y2="606.5254"/><text fill="#000000" font-family="sans-serif" font-size="14" lengthAdjust="spacing" textLength="40" x="5" y="78.5352">Client</text><ellipse cx="28" cy="13.5" fill="#E2E2F0" rx="8" ry="8" style="stroke:#181818;stroke-width:0.5;"/><path d="M28,21.5 L28,48.5 M15,29.5 L41,29.5 M28,48.5 L15,63.5 M28,48.5 L41,63.5 " fill="none" style="stroke:#181818;stroke-width:0.5;"/><text fill="#000000" font-family="sans-serif" font-size="14" lengthAdjust="spacing" textLength="40" x="5" y="619.0605">Client</text><ellipse cx="28" cy="630.5137" fill="#E2E2F0" rx="8" ry="8" style="stroke:#181818;stroke-width:0.5;"/><path d="M28,638.5137 L28,665.5137 M15,646.5137 L41,646.5137 M28,665.5137 L15,680.5137 M28,665.5137 L41,680.5137 " fill="none" style="stroke:#181818;stroke-width:0.5;"/><rect fill="#E2E2F0" height="30.4883" rx="2.5" ry="2.5" style="stroke:#181818;stroke-width:0.5;" width="82" x="205" y="50"/><text fill="#000000" font-family="sans-serif" font-size="14" lengthAdjust="spacing" textLength="68" x="212" y="70.5352">Container</text><rect fill="#E2E2F0" height="30.4883" rx="2.5" ry="2.5" style="stroke:#181818;stroke-width:0.5;" width="82" x="205" y="605.5254"/><text fill="#000000" font-family="sans-serif" font-size="14" lengthAdjust="spacing" textLength="68" x="212" y="626.0605">Container</text><rect fill="#E2E2F0" height="30.4883" rx="2.5" ry="2.5" style="stroke:#181818;stroke-width:0.5;" width="239" x="297" y="50"/><text fill="#000000" font-family="sans-serif" font-size="14" lengthAdjust="spacing" textLength="225" x="304" y="70.5352">ContentNegotiatingViewResolver</text><rect fill="#E2E2F0" height="30.4883" rx="2.5" ry="2.5" style="stroke:#181818;stroke-width:0.5;" width="239" x="297" y="605.5254"/><text fill="#000000" font-family="sans-serif" font-size="14" lengthAdjust="spacing" textLength="225" x="304" y="626.0605">ContentNegotiatingViewResolver</text><rect fill="#E2E2F0" height="30.4883" rx="2.5" ry="2.5" style="stroke:#181818;stroke-width:0.5;" width="169" x="546" y="50"/><text fill="#000000" font-family="sans-serif" font-size="14" lengthAdjust="spacing" textLength="155" x="553" y="70.5352">MustacheViewResolver</text><rect fill="#E2E2F0" height="30.4883" rx="2.5" ry="2.5" style="stroke:#181818;stroke-width:0.5;" width="169" x="546" y="605.5254"/><text fill="#000000" font-family="sans-serif" font-size="14" lengthAdjust="spacing" textLength="155" x="553" y="626.0605">MustacheViewResolver</text><rect fill="#E2E2F0" height="30.4883" rx="2.5" ry="2.5" style="stroke:#181818;stroke-width:0.5;" width="145" x="725" y="50"/><a href="https://github.com/johnlayton/nokescourt/blob/main/src/main/java/org/nokescourt/NokesCourtApplication.java#L198" target="_top" title="https://github.com/johnlayton/nokescourt/blob/main/src/main/java/org/nokescourt/NokesCourtApplication.java#L198" xlink:actuate="onRequest" xlink:href="https://github.com/johnlayton/nokescourt/blob/main/src/main/java/org/nokescourt/NokesCourtApplication.java#L198" xlink:show="new" xlink:title="https://github.com/johnlayton/nokescourt/blob/main/src/main/java/org/nokescourt/NokesCourtApplication.java#L198" xlink:type="simple"><text fill="#0000FF" font-family="sans-serif" font-size="14" lengthAdjust="spacing" text-decoration="underline" textLength="131" x="732" y="70.5352">MyPdfViewResolver</text></a><rect fill="#E2E2F0" height="30.4883" rx="2.5" ry="2.5" style="stroke:#181818;stroke-width:0.5;" width="145" x="725" y="605.5254"/><a href="https://github.com/johnlayton/nokescourt/blob/main/src/main/java/org/nokescourt/NokesCourtApplication.java#L198" target="_top" title="https://github.com/johnlayton/nokescourt/blob/main/src/main/java/org/nokescourt/NokesCourtApplication.java#L198" xlink:actuate="onRequest" xlink:href="https://github.com/johnlayton/nokescourt/blob/main/src/main/java/org/nokescourt/NokesCourtApplication.java#L198" xlink:show="new" xlink:title="https://github.com/johnlayton/nokescourt/blob/main/src/main/java/org/nokescourt/NokesCourtApplication.java#L198" xlink:type="simple"><text fill="#0000FF" font-family="sans-serif" font-size="14" lengthAdjust="spacing" text-decoration="underline" textLength="131" x="732" y="626.0605">MyPdfViewResolver</text></a><rect fill="#E2E2F0" height="30.4883" rx="2.5" ry="2.5" style="stroke:#181818;stroke-width:0.5;" width="161" x="880" y="50"/><a href="https://github.com/johnlayton/nokescourt/blob/main/src/main/java/org/nokescourt/NokesCourtApplication.java#L83" target="_top" title="https://github.com/johnlayton/nokescourt/blob/main/src/main/java/org/nokescourt/NokesCourtApplication.java#L83" xlink:actuate="onRequest" xlink:href="https://github.com/johnlayton/nokescourt/blob/main/src/main/java/org/nokescourt/NokesCourtApplication.java#L83" xlink:show="new" xlink:title="https://github.com/johnlayton/nokescourt/blob/main/src/main/java/org/nokescourt/NokesCourtApplication.java#L83" xlink:type="simple"><text fill="#0000FF" font-family="sans-serif" font-size="14" lengthAdjust="spacing" text-decoration="underline" textLength="147" x="887" y="70.5352">ExamsViewController</text></a><rect fill="#E2E2F0" height="30.4883" rx="2.5" ry="2.5" style="stroke:#181818;stroke-width:0.5;" width="161" x="880" y="605.5254"/><a href="https://github.com/johnlayton/nokescourt/blob/main/src/main/java/org/nokescourt/NokesCourtApplication.java#L83" target="_top" title="https://github.com/johnlayton/nokescourt/blob/main/src/main/java/org/nokescourt/NokesCourtApplication.java#L83" xlink:actuate="onRequest" xlink:href="https://github.com/johnlayton/nokescourt/blob/main/src/main/java/org/nokescourt/NokesCourtApplication.java#L83" xlink:show="new" xlink:title="https://github.com/johnlayton/nokescourt/blob/main/src/main/java/org/nokescourt/NokesCourtApplication.java#L83" xlink:type="simple"><text fill="#0000FF" font-family="sans-serif" font-size="14" lengthAdjust="spacing" text-decoration="underline" textLength="147" x="887" y="626.0605">ExamsViewController</text></a><rect fill="#E2E2F0" height="30.4883" rx="2.5" ry="2.5" style="stroke:#181818;stroke-width:0.5;" width="100" x="1051" y="50"/><a href="https://github.com/johnlayton/nokescourt/blob/main/src/main/java/org/nokescourt/NokesCourtApplication.java#L103" target="_top" title="https://github.com/johnlayton/nokescourt/blob/main/src/main/java/org/nokescourt/NokesCourtApplication.java#L103" xlink:actuate="onRequest" xlink:href="https://github.com/johnlayton/nokescourt/blob/main/src/main/java/org/nokescourt/NokesCourtApplication.java#L103" xlink:show="new" xlink:title="https://github.com/johnlayton/nokescourt/blob/main/src/main/java/org/nokescourt/NokesCourtApplication.java#L103" xlink:type="simple"><text fill="#0000FF" font-family="sans-serif" font-size="14" lengthAdjust="spacing" text-decoration="underline" textLength="86" x="1058" y="70.5352">ExamService</text></a><rect fill="#E2E2F0" height="30.4883" rx="2.5" ry="2.5" style="stroke:#181818;stroke-width:0.5;" width="100" x="1051" y="605.5254"/><a href="https://github.com/johnlayton/nokescourt/blob/main/src/main/java/org/nokescourt/NokesCourtApplication.java#L103" target="_top" title="https://github.com/johnlayton/nokescourt/blob/main/src/main/java/org/nokescourt/NokesCourtApplication.java#L103" xlink:actuate="onRequest" xlink:href="https://github.com/johnlayton/nokescourt/blob/main/src/main/java/org/nokescourt/NokesCourtApplication.java#L103" xlink:show="new" xlink:title="https://github.com/johnlayton/nokescourt/blob/main/src/main/java/org/nokescourt/NokesCourtApplication.java#L103" xlink:type="simple"><text fill="#0000FF" font-family="sans-serif" font-size="14" lengthAdjust="spacing" text-decoration="underline" textLength="86" x="1058" y="626.0605">ExamService</text></a><rect fill="#FFFFFF" height="244.8633" style="stroke:#181818;stroke-width:1.0;" width="10" x="241" y="112.7988"/><rect fill="#FFFFFF" height="201.5527" style="stroke:#181818;stroke-width:1.0;" width="10" x="241" y="386.9727"/><rect fill="#FFFFFF" height="72.6211" style="stroke:#181818;stroke-width:1.0;" width="10" x="955.5" y="142.1094"/><rect fill="#FFFFFF" height="29.3105" style="stroke:#181818;stroke-width:1.0;" width="10" x="955.5" y="416.2832"/><rect fill="#FFFFFF" height="14" style="stroke:#181818;stroke-width:1.0;" width="10" x="1096" y="171.4199"/><polygon fill="#181818" points="229,108.7988,239,112.7988,229,116.7988,233,112.7988" style="stroke:#181818;stroke-width:1.0;"/><line style="stroke:#181818;stroke-width:1.0;" x1="28" x2="235" y1="112.7988" y2="112.7988"/><text fill="#000000" font-family="sans-serif" font-size="13" lengthAdjust="spacing" textLength="194" x="35" y="108.0566">[get] /view/exam?format=html</text><polygon fill="#181818" points="943.5,138.1094,953.5,142.1094,943.5,146.1094,947.5,142.1094" style="stroke:#181818;stroke-width:1.0;"/><line style="stroke:#181818;stroke-width:1.0;" x1="251" x2="949.5" y1="142.1094" y2="142.1094"/><text fill="#000000" font-family="sans-serif" font-size="13" lengthAdjust="spacing" textLength="41" x="258" y="137.3672">exams</text><polygon fill="#181818" points="1084,167.4199,1094,171.4199,1084,175.4199,1088,171.4199" style="stroke:#181818;stroke-width:1.0;"/><line style="stroke:#181818;stroke-width:1.0;" x1="965.5" x2="1090" y1="171.4199" y2="171.4199"/><text fill="#000000" font-family="sans-serif" font-size="13" lengthAdjust="spacing" textLength="61" x="972.5" y="166.6777">listExams</text><polygon fill="#181818" points="976.5,181.4199,966.5,185.4199,976.5,189.4199,972.5,185.4199" style="stroke:#181818;stroke-width:1.0;"/><line style="stroke:#181818;stroke-width:1.0;" x1="970.5" x2="1100" y1="185.4199" y2="185.4199"/><polygon fill="#181818" points="262,210.7305,252,214.7305,262,218.7305,258,214.7305" style="stroke:#181818;stroke-width:1.0;"/><line style="stroke:#181818;stroke-width:1.0;" x1="256" x2="959.5" y1="214.7305" y2="214.7305"/><text fill="#000000" font-family="sans-serif" font-size="13" lengthAdjust="spacing" textLength="151" x="268" y="209.9883">ModelAndView("exams")</text><line style="stroke:#181818;stroke-width:1.0;" x1="251" x2="293" y1="244.041" y2="244.041"/><line style="stroke:#181818;stroke-width:1.0;" x1="293" x2="293" y1="244.041" y2="257.041"/><line style="stroke:#181818;stroke-width:1.0;" x1="252" x2="293" y1="257.041" y2="257.041"/><polygon fill="#181818" points="262,253.041,252,257.041,262,261.041,258,257.041" style="stroke:#181818;stroke-width:1.0;"/><text fill="#000000" font-family="sans-serif" font-size="13" lengthAdjust="spacing" textLength="102" x="258" y="239.2988">getViewResolver</text><polygon fill="#181818" points="404.5,282.3516,414.5,286.3516,404.5,290.3516,408.5,286.3516" style="stroke:#181818;stroke-width:1.0;"/><line style="stroke:#181818;stroke-width:1.0;" x1="251" x2="410.5" y1="286.3516" y2="286.3516"/><text fill="#000000" font-family="sans-serif" font-size="13" lengthAdjust="spacing" textLength="49" x="258" y="281.6094">getView</text><polygon fill="#181818" points="618.5,311.6621,628.5,315.6621,618.5,319.6621,622.5,315.6621" style="stroke:#181818;stroke-width:1.0;"/><line style="stroke:#181818;stroke-width:1.0;" x1="416.5" x2="624.5" y1="315.6621" y2="315.6621"/><text fill="#000000" font-family="sans-serif" font-size="13" lengthAdjust="spacing" textLength="49" x="423.5" y="310.9199">getView</text><polygon fill="#181818" points="427.5,325.6621,417.5,329.6621,427.5,333.6621,423.5,329.6621" style="stroke:#181818;stroke-width:1.0;"/><line style="stroke:#181818;stroke-width:1.0;" x1="421.5" x2="629.5" y1="329.6621" y2="329.6621"/><polygon fill="#181818" points="262,339.6621,252,343.6621,262,347.6621,258,343.6621" style="stroke:#181818;stroke-width:1.0;"/><line style="stroke:#181818;stroke-width:1.0;" x1="256" x2="415.5" y1="343.6621" y2="343.6621"/><polygon fill="#181818" points="39,353.6621,29,357.6621,39,361.6621,35,357.6621" style="stroke:#181818;stroke-width:1.0;"/><line style="stroke:#181818;stroke-width:1.0;" x1="33" x2="245" y1="357.6621" y2="357.6621"/><polygon fill="#181818" points="229,382.9727,239,386.9727,229,390.9727,233,386.9727" style="stroke:#181818;stroke-width:1.0;"/><line style="stroke:#181818;stroke-width:1.0;" x1="28" x2="235" y1="386.9727" y2="386.9727"/><text fill="#000000" font-family="sans-serif" font-size="13" lengthAdjust="spacing" textLength="186" x="35" y="382.2305">[get] /view/exam?format=pdf</text><polygon fill="#181818" points="943.5,412.2832,953.5,416.2832,943.5,420.2832,947.5,416.2832" style="stroke:#181818;stroke-width:1.0;"/><line style="stroke:#181818;stroke-width:1.0;" x1="251" x2="949.5" y1="416.2832" y2="416.2832"/><text fill="#000000" font-family="sans-serif" font-size="13" lengthAdjust="spacing" textLength="41" x="258" y="411.541">exams</text><polygon fill="#181818" points="262,441.5938,252,445.5938,262,449.5938,258,445.5938" style="stroke:#181818;stroke-width:1.0;"/><line style="stroke:#181818;stroke-width:1.0;" x1="256" x2="959.5" y1="445.5938" y2="445.5938"/><text fill="#000000" font-family="sans-serif" font-size="13" lengthAdjust="spacing" textLength="151" x="268" y="440.8516">ModelAndView("exams")</text><line style="stroke:#181818;stroke-width:1.0;" x1="251" x2="293" y1="474.9043" y2="474.9043"/><line style="stroke:#181818;stroke-width:1.0;" x1="293" x2="293" y1="474.9043" y2="487.9043"/><line style="stroke:#181818;stroke-width:1.0;" x1="252" x2="293" y1="487.9043" y2="487.9043"/><polygon fill="#181818" points="262,483.9043,252,487.9043,262,491.9043,258,487.9043" style="stroke:#181818;stroke-width:1.0;"/><text fill="#000000" font-family="sans-serif" font-size="13" lengthAdjust="spacing" textLength="102" x="258" y="470.1621">getViewResolver</text><polygon fill="#181818" points="404.5,513.2148,414.5,517.2148,404.5,521.2148,408.5,517.2148" style="stroke:#181818;stroke-width:1.0;"/><line style="stroke:#181818;stroke-width:1.0;" x1="251" x2="410.5" y1="517.2148" y2="517.2148"/><text fill="#000000" font-family="sans-serif" font-size="13" lengthAdjust="spacing" textLength="49" x="258" y="512.4727">getView</text><polygon fill="#181818" points="785.5,542.5254,795.5,546.5254,785.5,550.5254,789.5,546.5254" style="stroke:#181818;stroke-width:1.0;"/><line style="stroke:#181818;stroke-width:1.0;" x1="416.5" x2="791.5" y1="546.5254" y2="546.5254"/><text fill="#000000" font-family="sans-serif" font-size="13" lengthAdjust="spacing" textLength="49" x="423.5" y="541.7832">getView</text><polygon fill="#181818" points="427.5,556.5254,417.5,560.5254,427.5,564.5254,423.5,560.5254" style="stroke:#181818;stroke-width:1.0;"/><line style="stroke:#181818;stroke-width:1.0;" x1="421.5" x2="796.5" y1="560.5254" y2="560.5254"/><polygon fill="#181818" points="262,570.5254,252,574.5254,262,578.5254,258,574.5254" style="stroke:#181818;stroke-width:1.0;"/><line style="stroke:#181818;stroke-width:1.0;" x1="256" x2="415.5" y1="574.5254" y2="574.5254"/><polygon fill="#181818" points="39,584.5254,29,588.5254,39,592.5254,35,588.5254" style="stroke:#181818;stroke-width:1.0;"/><line style="stroke:#181818;stroke-width:1.0;" x1="33" x2="245" y1="588.5254" y2="588.5254"/><!--SRC=[tLGzJyCm4DtpAwommD0Qn58gFbHLtMY5G6AfEhYEcxWuliY-1lhlSMWXRkAgPQ4Is-dktSkxf-SmZc38K4cXCIgOGSbbmJII8MXaKWlJwZhaHAI0ag7KwQiKxy_2WYeRqF7A8kEPs0k8fzCCiR1zIbE9sMhUvP3J9MHQiJM2fXhUXEMmCaZd2kOqTtgeDNnJB5d9A9ZKXqsgSbYLWw9GaZk5eBiLykpnwgP7nkkdPE4BcirYmcoxVqgXlMio-c2vhVHKVXjGwaTfO79IKoytOb-4AIKNdiXj9uessIAT-pfIf4-cgS0PeQMxX0e7VrY0oHdUPPYhY76K9KFXXR3UTKG14nnbHMD9lHooAhIv9TmATaHAMXm5oBvF2f7STdP8eaGSlTfmPWo9K0ETLAZp-Eke-AB9rxnhnnwVpTcya-iMSFzhhhUZ0q175Nhj7a5mV5314T_Tav1jw7pRQkGl8raaYxzFv3z8HFEVwiUXDJjL5Zu1]--></g></svg>