<?xml version="1.0" encoding="us-ascii" standalone="no"?><svg xmlns="http://www.w3.org/2000/svg" xmlns:xlink="http://www.w3.org/1999/xlink" contentStyleType="text/css" height="644px" preserveAspectRatio="none" style="width:1157px;height:644px;background:#FFFFFF;" version="1.1" viewBox="0 0 1157 644" width="1157px" zoomAndPan="magnify"><defs/><g><rect fill="#FFFFFF" height="201.5527" style="stroke:#181818;stroke-width:1.0;" width="10" x="241" y="112.7988"/><rect fill="#FFFFFF" height="201.5527" style="stroke:#181818;stroke-width:1.0;" width="10" x="241" y="343.6621"/><rect fill="#FFFFFF" height="29.3105" style="stroke:#181818;stroke-width:1.0;" width="10" x="955.5" y="142.1094"/><rect fill="#FFFFFF" height="29.3105" style="stroke:#181818;stroke-width:1.0;" width="10" x="955.5" y="372.9727"/><line style="stroke:#181818;stroke-width:0.5;stroke-dasharray:5.0,5.0;" x1="28" x2="28" y1="81.4883" y2="563.2148"/><line style="stroke:#181818;stroke-width:0.5;stroke-dasharray:5.0,5.0;" x1="246" x2="246" y1="81.4883" y2="563.2148"/><line style="stroke:#181818;stroke-width:0.5;stroke-dasharray:5.0,5.0;" x1="416" x2="416" y1="81.4883" y2="563.2148"/><line style="stroke:#181818;stroke-width:0.5;stroke-dasharray:5.0,5.0;" x1="630" x2="630" y1="81.4883" y2="563.2148"/><line style="stroke:#181818;stroke-width:0.5;stroke-dasharray:5.0,5.0;" x1="797" x2="797" y1="81.4883" y2="563.2148"/><line style="stroke:#181818;stroke-width:0.5;stroke-dasharray:5.0,5.0;" x1="960" x2="960" y1="81.4883" y2="563.2148"/><line style="stroke:#181818;stroke-width:0.5;stroke-dasharray:5.0,5.0;" x1="1101" x2="1101" y1="81.4883" y2="563.2148"/><text fill="#000000" font-family="sans-serif" font-size="14" lengthAdjust="spacing" textLength="40" x="5" y="78.5352">Client</text><ellipse cx="28" cy="13.5" fill="#E2E2F0" rx="8" ry="8" style="stroke:#181818;stroke-width:0.5;"/><path d="M28,21.5 L28,48.5 M15,29.5 L41,29.5 M28,48.5 L15,63.5 M28,48.5 L41,63.5 " fill="none" style="stroke:#181818;stroke-width:0.5;"/><text fill="#000000" font-family="sans-serif" font-size="14" lengthAdjust="spacing" textLength="40" x="5" y="575.75">Client</text><ellipse cx="28" cy="587.2031" fill="#E2E2F0" rx="8" ry="8" style="stroke:#181818;stroke-width:0.5;"/><path d="M28,595.2031 L28,622.2031 M15,603.2031 L41,603.2031 M28,622.2031 L15,637.2031 M28,622.2031 L41,637.2031 " fill="none" style="stroke:#181818;stroke-width:0.5;"/><rect fill="#E2E2F0" height="30.4883" rx="2.5" ry="2.5" style="stroke:#181818;stroke-width:0.5;" width="82" x="205" y="50"/><text fill="#000000" font-family="sans-serif" font-size="14" lengthAdjust="spacing" textLength="68" x="212" y="70.5352">Container</text><rect fill="#E2E2F0" height="30.4883" rx="2.5" ry="2.5" style="stroke:#181818;stroke-width:0.5;" width="82" x="205" y="562.2148"/><text fill="#000000" font-family="sans-serif" font-size="14" lengthAdjust="spacing" textLength="68" x="212" y="582.75">Container</text><rect fill="#E2E2F0" height="30.4883" rx="2.5" ry="2.5" style="stroke:#181818;stroke-width:0.5;" width="239" x="297" y="50"/><text fill="#000000" font-family="sans-serif" font-size="14" lengthAdjust="spacing" textLength="225" x="304" y="70.5352">ContentNegotiatingViewResolver</text><rect fill="#E2E2F0" height="30.4883" rx="2.5" ry="2.5" style="stroke:#181818;stroke-width:0.5;" width="239" x="297" y="562.2148"/><text fill="#000000" font-family="sans-serif" font-size="14" lengthAdjust="spacing" textLength="225" x="304" y="582.75">ContentNegotiatingViewResolver</text><rect fill="#E2E2F0" height="30.4883" rx="2.5" ry="2.5" style="stroke:#181818;stroke-width:0.5;" width="169" x="546" y="50"/><text fill="#000000" font-family="sans-serif" font-size="14" lengthAdjust="spacing" textLength="155" x="553" y="70.5352">MustacheViewResolver</text><rect fill="#E2E2F0" height="30.4883" rx="2.5" ry="2.5" style="stroke:#181818;stroke-width:0.5;" width="169" x="546" y="562.2148"/><text fill="#000000" font-family="sans-serif" font-size="14" lengthAdjust="spacing" textLength="155" x="553" y="582.75">MustacheViewResolver</text><rect fill="#E2E2F0" height="30.4883" rx="2.5" ry="2.5" style="stroke:#181818;stroke-width:0.5;" width="145" x="725" y="50"/><text fill="#000000" font-family="sans-serif" font-size="14" lengthAdjust="spacing" textLength="131" x="732" y="70.5352">MyPdfViewResolver</text><rect fill="#E2E2F0" height="30.4883" rx="2.5" ry="2.5" style="stroke:#181818;stroke-width:0.5;" width="145" x="725" y="562.2148"/><text fill="#000000" font-family="sans-serif" font-size="14" lengthAdjust="spacing" textLength="131" x="732" y="582.75">MyPdfViewResolver</text><rect fill="#E2E2F0" height="30.4883" rx="2.5" ry="2.5" style="stroke:#181818;stroke-width:0.5;" width="161" x="880" y="50"/><text fill="#000000" font-family="sans-serif" font-size="14" lengthAdjust="spacing" textLength="147" x="887" y="70.5352">ExamsViewController</text><rect fill="#E2E2F0" height="30.4883" rx="2.5" ry="2.5" style="stroke:#181818;stroke-width:0.5;" width="161" x="880" y="562.2148"/><text fill="#000000" font-family="sans-serif" font-size="14" lengthAdjust="spacing" textLength="147" x="887" y="582.75">ExamsViewController</text><rect fill="#E2E2F0" height="30.4883" rx="2.5" ry="2.5" style="stroke:#181818;stroke-width:0.5;" width="100" x="1051" y="50"/><text fill="#000000" font-family="sans-serif" font-size="14" lengthAdjust="spacing" textLength="86" x="1058" y="70.5352">ExamService</text><rect fill="#E2E2F0" height="30.4883" rx="2.5" ry="2.5" style="stroke:#181818;stroke-width:0.5;" width="100" x="1051" y="562.2148"/><text fill="#000000" font-family="sans-serif" font-size="14" lengthAdjust="spacing" textLength="86" x="1058" y="582.75">ExamService</text><rect fill="#FFFFFF" height="201.5527" style="stroke:#181818;stroke-width:1.0;" width="10" x="241" y="112.7988"/><rect fill="#FFFFFF" height="201.5527" style="stroke:#181818;stroke-width:1.0;" width="10" x="241" y="343.6621"/><rect fill="#FFFFFF" height="29.3105" style="stroke:#181818;stroke-width:1.0;" width="10" x="955.5" y="142.1094"/><rect fill="#FFFFFF" height="29.3105" style="stroke:#181818;stroke-width:1.0;" width="10" x="955.5" y="372.9727"/><polygon fill="#181818" points="229,108.7988,239,112.7988,229,116.7988,233,112.7988" style="stroke:#181818;stroke-width:1.0;"/><line style="stroke:#181818;stroke-width:1.0;" x1="28" x2="235" y1="112.7988" y2="112.7988"/><text fill="#000000" font-family="sans-serif" font-size="13" lengthAdjust="spacing" textLength="194" x="35" y="108.0566">[get] /view/exam?format=html</text><polygon fill="#181818" points="943.5,138.1094,953.5,142.1094,943.5,146.1094,947.5,142.1094" style="stroke:#181818;stroke-width:1.0;"/><line style="stroke:#181818;stroke-width:1.0;" x1="251" x2="949.5" y1="142.1094" y2="142.1094"/><text fill="#000000" font-family="sans-serif" font-size="13" lengthAdjust="spacing" textLength="41" x="258" y="137.3672">exams</text><polygon fill="#181818" points="262,167.4199,252,171.4199,262,175.4199,258,171.4199" style="stroke:#181818;stroke-width:1.0;"/><line style="stroke:#181818;stroke-width:1.0;" x1="256" x2="959.5" y1="171.4199" y2="171.4199"/><text fill="#000000" font-family="sans-serif" font-size="13" lengthAdjust="spacing" textLength="151" x="268" y="166.6777">ModelAndView("exams")</text><line style="stroke:#181818;stroke-width:1.0;" x1="251" x2="293" y1="200.7305" y2="200.7305"/><line style="stroke:#181818;stroke-width:1.0;" x1="293" x2="293" y1="200.7305" y2="213.7305"/><line style="stroke:#181818;stroke-width:1.0;" x1="252" x2="293" y1="213.7305" y2="213.7305"/><polygon fill="#181818" points="262,209.7305,252,213.7305,262,217.7305,258,213.7305" style="stroke:#181818;stroke-width:1.0;"/><text fill="#000000" font-family="sans-serif" font-size="13" lengthAdjust="spacing" textLength="102" x="258" y="195.9883">getViewResolver</text><polygon fill="#181818" points="404.5,239.041,414.5,243.041,404.5,247.041,408.5,243.041" style="stroke:#181818;stroke-width:1.0;"/><line style="stroke:#181818;stroke-width:1.0;" x1="251" x2="410.5" y1="243.041" y2="243.041"/><text fill="#000000" font-family="sans-serif" font-size="13" lengthAdjust="spacing" textLength="49" x="258" y="238.2988">getView</text><polygon fill="#181818" points="618.5,268.3516,628.5,272.3516,618.5,276.3516,622.5,272.3516" style="stroke:#181818;stroke-width:1.0;"/><line style="stroke:#181818;stroke-width:1.0;" x1="416.5" x2="624.5" y1="272.3516" y2="272.3516"/><text fill="#000000" font-family="sans-serif" font-size="13" lengthAdjust="spacing" textLength="49" x="423.5" y="267.6094">getView</text><polygon fill="#181818" points="427.5,282.3516,417.5,286.3516,427.5,290.3516,423.5,286.3516" style="stroke:#181818;stroke-width:1.0;"/><line style="stroke:#181818;stroke-width:1.0;" x1="421.5" x2="629.5" y1="286.3516" y2="286.3516"/><polygon fill="#181818" points="262,296.3516,252,300.3516,262,304.3516,258,300.3516" style="stroke:#181818;stroke-width:1.0;"/><line style="stroke:#181818;stroke-width:1.0;" x1="256" x2="415.5" y1="300.3516" y2="300.3516"/><polygon fill="#181818" points="39,310.3516,29,314.3516,39,318.3516,35,314.3516" style="stroke:#181818;stroke-width:1.0;"/><line style="stroke:#181818;stroke-width:1.0;" x1="33" x2="245" y1="314.3516" y2="314.3516"/><polygon fill="#181818" points="229,339.6621,239,343.6621,229,347.6621,233,343.6621" style="stroke:#181818;stroke-width:1.0;"/><line style="stroke:#181818;stroke-width:1.0;" x1="28" x2="235" y1="343.6621" y2="343.6621"/><text fill="#000000" font-family="sans-serif" font-size="13" lengthAdjust="spacing" textLength="186" x="35" y="338.9199">[get] /view/exam?format=pdf</text><polygon fill="#181818" points="943.5,368.9727,953.5,372.9727,943.5,376.9727,947.5,372.9727" style="stroke:#181818;stroke-width:1.0;"/><line style="stroke:#181818;stroke-width:1.0;" x1="251" x2="949.5" y1="372.9727" y2="372.9727"/><text fill="#000000" font-family="sans-serif" font-size="13" lengthAdjust="spacing" textLength="41" x="258" y="368.2305">exams</text><polygon fill="#181818" points="262,398.2832,252,402.2832,262,406.2832,258,402.2832" style="stroke:#181818;stroke-width:1.0;"/><line style="stroke:#181818;stroke-width:1.0;" x1="256" x2="959.5" y1="402.2832" y2="402.2832"/><text fill="#000000" font-family="sans-serif" font-size="13" lengthAdjust="spacing" textLength="151" x="268" y="397.541">ModelAndView("exams")</text><line style="stroke:#181818;stroke-width:1.0;" x1="251" x2="293" y1="431.5938" y2="431.5938"/><line style="stroke:#181818;stroke-width:1.0;" x1="293" x2="293" y1="431.5938" y2="444.5938"/><line style="stroke:#181818;stroke-width:1.0;" x1="252" x2="293" y1="444.5938" y2="444.5938"/><polygon fill="#181818" points="262,440.5938,252,444.5938,262,448.5938,258,444.5938" style="stroke:#181818;stroke-width:1.0;"/><text fill="#000000" font-family="sans-serif" font-size="13" lengthAdjust="spacing" textLength="102" x="258" y="426.8516">getViewResolver</text><polygon fill="#181818" points="404.5,469.9043,414.5,473.9043,404.5,477.9043,408.5,473.9043" style="stroke:#181818;stroke-width:1.0;"/><line style="stroke:#181818;stroke-width:1.0;" x1="251" x2="410.5" y1="473.9043" y2="473.9043"/><text fill="#000000" font-family="sans-serif" font-size="13" lengthAdjust="spacing" textLength="49" x="258" y="469.1621">getView</text><polygon fill="#181818" points="785.5,499.2148,795.5,503.2148,785.5,507.2148,789.5,503.2148" style="stroke:#181818;stroke-width:1.0;"/><line style="stroke:#181818;stroke-width:1.0;" x1="416.5" x2="791.5" y1="503.2148" y2="503.2148"/><text fill="#000000" font-family="sans-serif" font-size="13" lengthAdjust="spacing" textLength="49" x="423.5" y="498.4727">getView</text><polygon fill="#181818" points="427.5,513.2148,417.5,517.2148,427.5,521.2148,423.5,517.2148" style="stroke:#181818;stroke-width:1.0;"/><line style="stroke:#181818;stroke-width:1.0;" x1="421.5" x2="796.5" y1="517.2148" y2="517.2148"/><polygon fill="#181818" points="262,527.2148,252,531.2148,262,535.2148,258,531.2148" style="stroke:#181818;stroke-width:1.0;"/><line style="stroke:#181818;stroke-width:1.0;" x1="256" x2="415.5" y1="531.2148" y2="531.2148"/><polygon fill="#181818" points="39,541.2148,29,545.2148,39,549.2148,35,545.2148" style="stroke:#181818;stroke-width:1.0;"/><line style="stroke:#181818;stroke-width:1.0;" x1="33" x2="245" y1="545.2148" y2="545.2148"/><!--SRC=[xLCzJyCm4DtzAwnETAYw8m52LSSY118Bwd2oB-b9ZXqvHsZ_VHsAP3Tn-hMmiFgzU_VkxXaKEoyNXj2ogC4pAQh1ibmuoq0M_U0rC5-mT4p0PCiFmkytR9nfUzJLLyEWDZXEsBtgOXHTRg5gEhHhwPqn6VmTVKiAXJZubxF7Q5lUoyyIUItdRH2POw0_5SvNm0yRhem0nTG2Op9eh0r2cVv1ifDfP2pEkSnLzfojd4RpR7N7kflyY4wcGkD9tIDxgLeOysYD0-BunMArE4CCKhcB9W9P-Ao32_gENEZtwEdQ8lFAIDIw-4_43OdeV-4q3WFihxAm1m00]--></g></svg>